<svg xmlns="http://www.w3.org/2000/svg" viewBox="0 0 100 100">
  <defs>
    <linearGradient id="grad" x1="0%" y1="0%" x2="100%" y2="100%">
      <stop offset="0%" style="stop-color:#8b5cf6;stop-opacity:1" />
      <stop offset="100%" style="stop-color:#ec4899;stop-opacity:1" />
    </linearGradient>
  </defs>
  <rect width="100" height="100" rx="20" fill="url(#grad)"/>
  <g transform="translate(25, 25)" fill="white">
    <path d="M45 15 L40 20 L42 22 L47 17 L45 15 Z" />
    <path d="M35 25 L30 30 L32 32 L37 27 L35 25 Z" />
    <path d="M25 35 L20 40 L22 42 L27 37 L25 35 Z" />
    <path d="M15 45 L10 50 L12 52 L17 47 L15 45 Z" />
    <circle cx="8" cy="8" r="3" />
    <circle cx="14" cy="4" r="2" />
    <circle cx="4" cy="14" r="2" />
    <path d="M5 5 L38 38" stroke="white" stroke-width="3" stroke-linecap="round"/>
    <circle cx="42" cy="42" r="6" fill="white"/>
  </g>
</svg>

